<mxfile host="Electron" agent="Mozilla/5.0 (X11; Linux x86_64) AppleWebKit/537.36 (KHTML, like Gecko) draw.io/28.0.6 Chrome/138.0.7204.100 Electron/37.2.3 Safari/537.36" version="28.0.6">
  <diagram name="Page-1" id="WbomQFyr4mOSYKK_uOfv">
    <mxGraphModel dx="1388" dy="830" grid="1" gridSize="10" guides="1" tooltips="1" connect="1" arrows="1" fold="1" page="1" pageScale="1" pageWidth="850" pageHeight="1100" math="1" shadow="0">
      <root>
        <mxCell id="0" />
        <mxCell id="1" parent="0" />
        <mxCell id="v1X2Iz-Z-YhmHoCjYg2L-46" value="" style="endArrow=none;dashed=1;html=1;strokeWidth=2;rounded=0;strokeColor=#FF66B3;opacity=60;" parent="1" edge="1">
          <mxGeometry width="50" height="50" relative="1" as="geometry">
            <mxPoint x="120" y="619" as="sourcePoint" />
            <mxPoint x="200" y="619" as="targetPoint" />
          </mxGeometry>
        </mxCell>
        <mxCell id="v1X2Iz-Z-YhmHoCjYg2L-2" value="" style="pointerEvents=1;verticalLabelPosition=bottom;shadow=0;dashed=0;align=center;html=1;verticalAlign=top;shape=mxgraph.electrical.waveforms.sine_wave;strokeWidth=3;strokeColor=#FF0000;" parent="1" vertex="1">
          <mxGeometry x="70" y="259" width="200" height="110" as="geometry" />
        </mxCell>
        <mxCell id="v1X2Iz-Z-YhmHoCjYg2L-5" value="" style="endArrow=blockThin;html=1;rounded=0;endFill=1;strokeWidth=3;strokeColor=#0000FF;" parent="1" edge="1">
          <mxGeometry width="50" height="50" relative="1" as="geometry">
            <mxPoint x="80" y="479" as="sourcePoint" />
            <mxPoint x="80" y="439" as="targetPoint" />
          </mxGeometry>
        </mxCell>
        <mxCell id="v1X2Iz-Z-YhmHoCjYg2L-6" value="" style="endArrow=blockThin;html=1;rounded=0;endFill=1;strokeWidth=3;strokeColor=#0000FF;" parent="1" edge="1">
          <mxGeometry width="50" height="50" relative="1" as="geometry">
            <mxPoint x="120" y="479" as="sourcePoint" />
            <mxPoint x="120" y="439" as="targetPoint" />
          </mxGeometry>
        </mxCell>
        <mxCell id="v1X2Iz-Z-YhmHoCjYg2L-7" value="" style="endArrow=blockThin;html=1;rounded=0;endFill=1;strokeWidth=3;strokeColor=#0000FF;" parent="1" edge="1">
          <mxGeometry width="50" height="50" relative="1" as="geometry">
            <mxPoint x="160" y="479" as="sourcePoint" />
            <mxPoint x="160" y="439" as="targetPoint" />
          </mxGeometry>
        </mxCell>
        <mxCell id="v1X2Iz-Z-YhmHoCjYg2L-8" value="" style="endArrow=blockThin;html=1;rounded=0;endFill=1;strokeWidth=3;strokeColor=#0000FF;" parent="1" edge="1">
          <mxGeometry width="50" height="50" relative="1" as="geometry">
            <mxPoint x="200" y="479" as="sourcePoint" />
            <mxPoint x="200" y="439" as="targetPoint" />
          </mxGeometry>
        </mxCell>
        <mxCell id="v1X2Iz-Z-YhmHoCjYg2L-9" value="" style="endArrow=blockThin;html=1;rounded=0;endFill=1;strokeWidth=3;strokeColor=#0000FF;" parent="1" edge="1">
          <mxGeometry width="50" height="50" relative="1" as="geometry">
            <mxPoint x="240" y="479" as="sourcePoint" />
            <mxPoint x="240" y="439" as="targetPoint" />
          </mxGeometry>
        </mxCell>
        <mxCell id="v1X2Iz-Z-YhmHoCjYg2L-10" value="" style="endArrow=blockThin;html=1;rounded=0;endFill=1;strokeWidth=2;" parent="1" edge="1">
          <mxGeometry width="50" height="50" relative="1" as="geometry">
            <mxPoint x="40" y="479" as="sourcePoint" />
            <mxPoint x="300" y="479" as="targetPoint" />
          </mxGeometry>
        </mxCell>
        <mxCell id="v1X2Iz-Z-YhmHoCjYg2L-11" value="&lt;font style=&quot;font-size: 18px; color: rgb(255, 0, 0);&quot;&gt;&lt;b&gt;$$\phi_\text{err}(t)$$&lt;/b&gt;&lt;/font&gt;" style="text;html=1;align=center;verticalAlign=middle;whiteSpace=wrap;rounded=0;" parent="1" vertex="1">
          <mxGeometry x="10" y="269" width="60" height="30" as="geometry" />
        </mxCell>
        <mxCell id="v1X2Iz-Z-YhmHoCjYg2L-12" value="&lt;font style=&quot;font-size: 16px; color: rgb(153, 51, 255);&quot;&gt;&lt;b style=&quot;&quot;&gt;PFD samping&lt;/b&gt;&lt;/font&gt;" style="text;html=1;align=center;verticalAlign=middle;whiteSpace=wrap;rounded=0;" parent="1" vertex="1">
          <mxGeometry x="330" y="360" width="60" height="30" as="geometry" />
        </mxCell>
        <mxCell id="v1X2Iz-Z-YhmHoCjYg2L-13" value="" style="shape=flexArrow;endArrow=classic;html=1;rounded=0;strokeColor=#C3ABD0;strokeWidth=3;" parent="1" edge="1">
          <mxGeometry width="50" height="50" relative="1" as="geometry">
            <mxPoint x="330" y="420" as="sourcePoint" />
            <mxPoint x="400" y="420" as="targetPoint" />
          </mxGeometry>
        </mxCell>
        <mxCell id="v1X2Iz-Z-YhmHoCjYg2L-21" value="$$0$$" style="text;html=1;align=center;verticalAlign=middle;whiteSpace=wrap;rounded=0;" parent="1" vertex="1">
          <mxGeometry x="50" y="479" width="60" height="30" as="geometry" />
        </mxCell>
        <mxCell id="v1X2Iz-Z-YhmHoCjYg2L-22" value="$$T_\text{ref}$$" style="text;html=1;align=center;verticalAlign=middle;whiteSpace=wrap;rounded=0;" parent="1" vertex="1">
          <mxGeometry x="90" y="479" width="60" height="30" as="geometry" />
        </mxCell>
        <mxCell id="v1X2Iz-Z-YhmHoCjYg2L-23" value="$$2T_\text{ref}$$" style="text;html=1;align=center;verticalAlign=middle;whiteSpace=wrap;rounded=0;" parent="1" vertex="1">
          <mxGeometry x="130" y="479" width="60" height="30" as="geometry" />
        </mxCell>
        <mxCell id="v1X2Iz-Z-YhmHoCjYg2L-24" value="$$3T_\text{ref}$$" style="text;html=1;align=center;verticalAlign=middle;whiteSpace=wrap;rounded=0;" parent="1" vertex="1">
          <mxGeometry x="170" y="479" width="60" height="30" as="geometry" />
        </mxCell>
        <mxCell id="v1X2Iz-Z-YhmHoCjYg2L-25" value="$$4T_\text{ref}$$" style="text;html=1;align=center;verticalAlign=middle;whiteSpace=wrap;rounded=0;" parent="1" vertex="1">
          <mxGeometry x="210" y="479" width="60" height="30" as="geometry" />
        </mxCell>
        <mxCell id="v1X2Iz-Z-YhmHoCjYg2L-26" value="" style="pointerEvents=1;verticalLabelPosition=bottom;shadow=0;dashed=1;align=center;html=1;verticalAlign=top;shape=mxgraph.electrical.waveforms.sine_wave;strokeWidth=2;strokeColor=#FF0000;" parent="1" vertex="1">
          <mxGeometry x="460" y="330" width="200" height="110" as="geometry" />
        </mxCell>
        <mxCell id="v1X2Iz-Z-YhmHoCjYg2L-27" value="" style="endArrow=blockThin;html=1;rounded=0;endFill=1;strokeWidth=3;strokeColor=#0000FF;" parent="1" edge="1">
          <mxGeometry width="50" height="50" relative="1" as="geometry">
            <mxPoint x="480" y="440" as="sourcePoint" />
            <mxPoint x="480" y="360" as="targetPoint" />
          </mxGeometry>
        </mxCell>
        <mxCell id="v1X2Iz-Z-YhmHoCjYg2L-28" value="" style="endArrow=blockThin;html=1;rounded=0;endFill=1;strokeWidth=3;strokeColor=#0000FF;" parent="1" edge="1">
          <mxGeometry width="50" height="50" relative="1" as="geometry">
            <mxPoint x="520" y="440" as="sourcePoint" />
            <mxPoint x="520" y="345" as="targetPoint" />
          </mxGeometry>
        </mxCell>
        <mxCell id="v1X2Iz-Z-YhmHoCjYg2L-29" value="" style="endArrow=blockThin;html=1;rounded=0;endFill=1;strokeWidth=3;strokeColor=#0000FF;" parent="1" edge="1">
          <mxGeometry width="50" height="50" relative="1" as="geometry">
            <mxPoint x="560" y="440" as="sourcePoint" />
            <mxPoint x="560" y="383" as="targetPoint" />
          </mxGeometry>
        </mxCell>
        <mxCell id="v1X2Iz-Z-YhmHoCjYg2L-30" value="" style="endArrow=blockThin;html=1;rounded=0;endFill=1;strokeWidth=3;strokeColor=#0000FF;" parent="1" edge="1">
          <mxGeometry width="50" height="50" relative="1" as="geometry">
            <mxPoint x="600" y="440" as="sourcePoint" />
            <mxPoint x="600" y="422" as="targetPoint" />
          </mxGeometry>
        </mxCell>
        <mxCell id="v1X2Iz-Z-YhmHoCjYg2L-31" value="" style="endArrow=blockThin;html=1;rounded=0;endFill=1;strokeWidth=3;strokeColor=#0000FF;" parent="1" edge="1">
          <mxGeometry width="50" height="50" relative="1" as="geometry">
            <mxPoint x="640" y="440" as="sourcePoint" />
            <mxPoint x="640" y="407" as="targetPoint" />
          </mxGeometry>
        </mxCell>
        <mxCell id="v1X2Iz-Z-YhmHoCjYg2L-32" value="" style="endArrow=blockThin;html=1;rounded=0;endFill=1;strokeWidth=2;" parent="1" edge="1">
          <mxGeometry width="50" height="50" relative="1" as="geometry">
            <mxPoint x="440" y="440" as="sourcePoint" />
            <mxPoint x="700" y="440" as="targetPoint" />
          </mxGeometry>
        </mxCell>
        <mxCell id="v1X2Iz-Z-YhmHoCjYg2L-39" value="" style="endArrow=blockThin;html=1;rounded=0;endFill=1;strokeWidth=2;" parent="1" edge="1">
          <mxGeometry width="50" height="50" relative="1" as="geometry">
            <mxPoint x="40" y="679" as="sourcePoint" />
            <mxPoint x="300" y="679" as="targetPoint" />
          </mxGeometry>
        </mxCell>
        <mxCell id="v1X2Iz-Z-YhmHoCjYg2L-42" value="" style="endArrow=blockThin;html=1;rounded=0;endFill=1;strokeWidth=2;" parent="1" edge="1">
          <mxGeometry width="50" height="50" relative="1" as="geometry">
            <mxPoint x="160" y="679" as="sourcePoint" />
            <mxPoint x="160" y="589" as="targetPoint" />
          </mxGeometry>
        </mxCell>
        <mxCell id="v1X2Iz-Z-YhmHoCjYg2L-40" value="" style="endArrow=none;html=1;rounded=0;strokeWidth=3;strokeColor=#FF0000;" parent="1" edge="1">
          <mxGeometry width="50" height="50" relative="1" as="geometry">
            <mxPoint x="120" y="679" as="sourcePoint" />
            <mxPoint x="160" y="619" as="targetPoint" />
          </mxGeometry>
        </mxCell>
        <mxCell id="v1X2Iz-Z-YhmHoCjYg2L-41" value="" style="endArrow=none;html=1;rounded=0;strokeWidth=3;strokeColor=#FF0000;" parent="1" edge="1">
          <mxGeometry width="50" height="50" relative="1" as="geometry">
            <mxPoint x="200" y="679" as="sourcePoint" />
            <mxPoint x="160" y="619" as="targetPoint" />
          </mxGeometry>
        </mxCell>
        <mxCell id="v1X2Iz-Z-YhmHoCjYg2L-43" value="&lt;font style=&quot;font-size: 18px; color: rgb(255, 0, 0);&quot;&gt;&lt;b&gt;$$\Phi_\text{err}(f)$$&lt;/b&gt;&lt;/font&gt;" style="text;html=1;align=center;verticalAlign=middle;whiteSpace=wrap;rounded=0;" parent="1" vertex="1">
          <mxGeometry x="30" y="579" width="60" height="30" as="geometry" />
        </mxCell>
        <mxCell id="v1X2Iz-Z-YhmHoCjYg2L-44" value="&lt;font style=&quot;font-size: 16px;&quot;&gt;&lt;b&gt;&lt;i&gt;$$t$$&lt;/i&gt;&lt;/b&gt;&lt;/font&gt;" style="text;html=1;align=center;verticalAlign=middle;whiteSpace=wrap;rounded=0;" parent="1" vertex="1">
          <mxGeometry x="260" y="479" width="60" height="30" as="geometry" />
        </mxCell>
        <mxCell id="v1X2Iz-Z-YhmHoCjYg2L-45" value="&lt;font style=&quot;font-size: 16px;&quot;&gt;&lt;b&gt;&lt;i&gt;$$f$$&lt;/i&gt;&lt;/b&gt;&lt;/font&gt;" style="text;html=1;align=center;verticalAlign=middle;whiteSpace=wrap;rounded=0;" parent="1" vertex="1">
          <mxGeometry x="260" y="679" width="60" height="30" as="geometry" />
        </mxCell>
        <mxCell id="v1X2Iz-Z-YhmHoCjYg2L-47" value="&lt;font style=&quot;color: rgb(255, 0, 0);&quot;&gt;&lt;b style=&quot;&quot;&gt;$$\Phi_0$$&lt;/b&gt;&lt;/font&gt;" style="text;html=1;align=center;verticalAlign=middle;whiteSpace=wrap;rounded=0;" parent="1" vertex="1">
          <mxGeometry x="180" y="599" width="60" height="30" as="geometry" />
        </mxCell>
        <mxCell id="v1X2Iz-Z-YhmHoCjYg2L-48" value="" style="endArrow=none;dashed=1;html=1;strokeWidth=2;rounded=0;strokeColor=#6666FF;opacity=60;" parent="1" edge="1">
          <mxGeometry width="50" height="50" relative="1" as="geometry">
            <mxPoint x="390" y="619" as="sourcePoint" />
            <mxPoint x="730" y="619" as="targetPoint" />
          </mxGeometry>
        </mxCell>
        <mxCell id="v1X2Iz-Z-YhmHoCjYg2L-49" value="" style="endArrow=blockThin;html=1;rounded=0;endFill=1;strokeWidth=2;exitX=0.833;exitY=-0.003;exitDx=0;exitDy=0;exitPerimeter=0;" parent="1" edge="1">
          <mxGeometry width="50" height="50" relative="1" as="geometry">
            <mxPoint x="389.98" y="678.9100000000001" as="sourcePoint" />
            <mxPoint x="738" y="679" as="targetPoint" />
          </mxGeometry>
        </mxCell>
        <mxCell id="v1X2Iz-Z-YhmHoCjYg2L-50" value="" style="endArrow=blockThin;html=1;rounded=0;endFill=1;strokeWidth=2;" parent="1" edge="1">
          <mxGeometry width="50" height="50" relative="1" as="geometry">
            <mxPoint x="560" y="679" as="sourcePoint" />
            <mxPoint x="560" y="589" as="targetPoint" />
          </mxGeometry>
        </mxCell>
        <mxCell id="v1X2Iz-Z-YhmHoCjYg2L-51" value="" style="endArrow=none;html=1;rounded=0;strokeWidth=3;strokeColor=#0000FF;" parent="1" edge="1">
          <mxGeometry width="50" height="50" relative="1" as="geometry">
            <mxPoint x="520" y="679" as="sourcePoint" />
            <mxPoint x="560" y="619" as="targetPoint" />
          </mxGeometry>
        </mxCell>
        <mxCell id="v1X2Iz-Z-YhmHoCjYg2L-52" value="" style="endArrow=none;html=1;rounded=0;strokeWidth=3;strokeColor=#0000FF;" parent="1" edge="1">
          <mxGeometry width="50" height="50" relative="1" as="geometry">
            <mxPoint x="600" y="679" as="sourcePoint" />
            <mxPoint x="560" y="619" as="targetPoint" />
          </mxGeometry>
        </mxCell>
        <mxCell id="v1X2Iz-Z-YhmHoCjYg2L-54" value="&lt;font style=&quot;font-size: 16px;&quot;&gt;&lt;b&gt;&lt;i&gt;$$f$$&lt;/i&gt;&lt;/b&gt;&lt;/font&gt;" style="text;html=1;align=center;verticalAlign=middle;whiteSpace=wrap;rounded=0;" parent="1" vertex="1">
          <mxGeometry x="700" y="679" width="60" height="30" as="geometry" />
        </mxCell>
        <mxCell id="v1X2Iz-Z-YhmHoCjYg2L-55" value="&lt;font style=&quot;color: rgb(0, 0, 255);&quot;&gt;&lt;b style=&quot;&quot;&gt;$$\frac{\Phi_0}{T_\text{ref}}$$&lt;/b&gt;&lt;/font&gt;" style="text;html=1;align=center;verticalAlign=middle;whiteSpace=wrap;rounded=0;" parent="1" vertex="1">
          <mxGeometry x="570" y="579" width="60" height="30" as="geometry" />
        </mxCell>
        <mxCell id="v1X2Iz-Z-YhmHoCjYg2L-58" value="" style="endArrow=none;html=1;rounded=0;strokeWidth=3;strokeColor=#0000FF;" parent="1" edge="1">
          <mxGeometry width="50" height="50" relative="1" as="geometry">
            <mxPoint x="640" y="679" as="sourcePoint" />
            <mxPoint x="680" y="619" as="targetPoint" />
          </mxGeometry>
        </mxCell>
        <mxCell id="v1X2Iz-Z-YhmHoCjYg2L-59" value="" style="endArrow=none;html=1;rounded=0;strokeWidth=3;strokeColor=#0000FF;" parent="1" edge="1">
          <mxGeometry width="50" height="50" relative="1" as="geometry">
            <mxPoint x="720" y="679" as="sourcePoint" />
            <mxPoint x="680" y="619" as="targetPoint" />
          </mxGeometry>
        </mxCell>
        <mxCell id="v1X2Iz-Z-YhmHoCjYg2L-62" value="" style="endArrow=none;html=1;rounded=0;strokeWidth=3;strokeColor=#0000FF;" parent="1" edge="1">
          <mxGeometry width="50" height="50" relative="1" as="geometry">
            <mxPoint x="400" y="679" as="sourcePoint" />
            <mxPoint x="440" y="619" as="targetPoint" />
          </mxGeometry>
        </mxCell>
        <mxCell id="v1X2Iz-Z-YhmHoCjYg2L-63" value="" style="endArrow=none;html=1;rounded=0;strokeWidth=3;strokeColor=#0000FF;" parent="1" edge="1">
          <mxGeometry width="50" height="50" relative="1" as="geometry">
            <mxPoint x="480" y="679" as="sourcePoint" />
            <mxPoint x="440" y="619" as="targetPoint" />
          </mxGeometry>
        </mxCell>
        <mxCell id="v1X2Iz-Z-YhmHoCjYg2L-64" value="&lt;font style=&quot;font-size: 18px; color: rgb(0, 0, 255);&quot;&gt;&lt;b style=&quot;&quot;&gt;$$\Phi_\text{err,sampling}(f)$$&lt;/b&gt;&lt;/font&gt;" style="text;html=1;align=center;verticalAlign=middle;whiteSpace=wrap;rounded=0;" parent="1" vertex="1">
          <mxGeometry x="400" y="574" width="60" height="30" as="geometry" />
        </mxCell>
        <mxCell id="v1X2Iz-Z-YhmHoCjYg2L-65" value="&lt;font style=&quot;font-size: 18px; color: rgb(0, 0, 255);&quot;&gt;&lt;b style=&quot;&quot;&gt;$$\phi_\text{err,sampling}(t)$$&lt;/b&gt;&lt;/font&gt;" style="text;html=1;align=center;verticalAlign=middle;whiteSpace=wrap;rounded=0;" parent="1" vertex="1">
          <mxGeometry x="450" y="300" width="60" height="30" as="geometry" />
        </mxCell>
        <mxCell id="v1X2Iz-Z-YhmHoCjYg2L-66" value="" style="endArrow=blockThin;html=1;rounded=0;endFill=1;strokeWidth=2;" parent="1" edge="1">
          <mxGeometry width="50" height="50" relative="1" as="geometry">
            <mxPoint x="40" y="369" as="sourcePoint" />
            <mxPoint x="300" y="369" as="targetPoint" />
          </mxGeometry>
        </mxCell>
        <mxCell id="v1X2Iz-Z-YhmHoCjYg2L-72" value="&lt;font style=&quot;font-size: 16px;&quot;&gt;&lt;b&gt;&lt;i&gt;$$t$$&lt;/i&gt;&lt;/b&gt;&lt;/font&gt;" style="text;html=1;align=center;verticalAlign=middle;whiteSpace=wrap;rounded=0;" parent="1" vertex="1">
          <mxGeometry x="260" y="369" width="60" height="30" as="geometry" />
        </mxCell>
        <mxCell id="v1X2Iz-Z-YhmHoCjYg2L-75" value="" style="endArrow=none;html=1;rounded=0;endFill=0;strokeWidth=3;strokeColor=#00CC00;" parent="1" edge="1">
          <mxGeometry width="50" height="50" relative="1" as="geometry">
            <mxPoint x="880" y="440" as="sourcePoint" />
            <mxPoint x="880" y="360" as="targetPoint" />
          </mxGeometry>
        </mxCell>
        <mxCell id="v1X2Iz-Z-YhmHoCjYg2L-76" value="" style="endArrow=none;html=1;rounded=0;endFill=0;strokeWidth=3;strokeColor=#00CC00;" parent="1" edge="1">
          <mxGeometry width="50" height="50" relative="1" as="geometry">
            <mxPoint x="920" y="440" as="sourcePoint" />
            <mxPoint x="920" y="345" as="targetPoint" />
          </mxGeometry>
        </mxCell>
        <mxCell id="v1X2Iz-Z-YhmHoCjYg2L-77" value="" style="endArrow=none;html=1;rounded=0;endFill=0;strokeWidth=3;strokeColor=#00CC00;" parent="1" edge="1">
          <mxGeometry width="50" height="50" relative="1" as="geometry">
            <mxPoint x="960" y="440" as="sourcePoint" />
            <mxPoint x="960" y="344" as="targetPoint" />
          </mxGeometry>
        </mxCell>
        <mxCell id="v1X2Iz-Z-YhmHoCjYg2L-78" value="" style="endArrow=none;html=1;rounded=0;endFill=0;strokeWidth=3;strokeColor=#00CC00;" parent="1" edge="1">
          <mxGeometry width="50" height="50" relative="1" as="geometry">
            <mxPoint x="1000" y="440" as="sourcePoint" />
            <mxPoint x="1000" y="383" as="targetPoint" />
          </mxGeometry>
        </mxCell>
        <mxCell id="v1X2Iz-Z-YhmHoCjYg2L-79" value="" style="endArrow=none;html=1;rounded=0;endFill=0;strokeWidth=3;strokeColor=#00CC00;" parent="1" edge="1">
          <mxGeometry width="50" height="50" relative="1" as="geometry">
            <mxPoint x="1040" y="440" as="sourcePoint" />
            <mxPoint x="1040" y="407" as="targetPoint" />
          </mxGeometry>
        </mxCell>
        <mxCell id="v1X2Iz-Z-YhmHoCjYg2L-80" value="" style="endArrow=blockThin;html=1;rounded=0;endFill=1;strokeWidth=2;" parent="1" edge="1">
          <mxGeometry width="50" height="50" relative="1" as="geometry">
            <mxPoint x="840" y="440" as="sourcePoint" />
            <mxPoint x="1100" y="440" as="targetPoint" />
          </mxGeometry>
        </mxCell>
        <mxCell id="v1X2Iz-Z-YhmHoCjYg2L-86" value="" style="endArrow=none;html=1;rounded=0;endFill=0;strokeWidth=3;strokeColor=#00CC00;" parent="1" edge="1">
          <mxGeometry width="50" height="50" relative="1" as="geometry">
            <mxPoint x="920" y="360" as="sourcePoint" />
            <mxPoint x="880" y="360" as="targetPoint" />
          </mxGeometry>
        </mxCell>
        <mxCell id="v1X2Iz-Z-YhmHoCjYg2L-87" value="" style="endArrow=none;html=1;rounded=0;endFill=0;strokeWidth=3;strokeColor=#00CC00;" parent="1" edge="1">
          <mxGeometry width="50" height="50" relative="1" as="geometry">
            <mxPoint x="960" y="344.92" as="sourcePoint" />
            <mxPoint x="920" y="344.92" as="targetPoint" />
          </mxGeometry>
        </mxCell>
        <mxCell id="v1X2Iz-Z-YhmHoCjYg2L-88" value="" style="endArrow=none;html=1;rounded=0;endFill=0;strokeWidth=3;strokeColor=#00CC00;" parent="1" edge="1">
          <mxGeometry width="50" height="50" relative="1" as="geometry">
            <mxPoint x="1000" y="383.92" as="sourcePoint" />
            <mxPoint x="960" y="383.92" as="targetPoint" />
          </mxGeometry>
        </mxCell>
        <mxCell id="v1X2Iz-Z-YhmHoCjYg2L-89" value="" style="endArrow=none;html=1;rounded=0;endFill=0;strokeWidth=3;strokeColor=#00CC00;" parent="1" edge="1">
          <mxGeometry width="50" height="50" relative="1" as="geometry">
            <mxPoint x="1039" y="423" as="sourcePoint" />
            <mxPoint x="999" y="423" as="targetPoint" />
          </mxGeometry>
        </mxCell>
        <mxCell id="v1X2Iz-Z-YhmHoCjYg2L-90" value="" style="endArrow=none;html=1;rounded=0;endFill=0;strokeWidth=3;strokeColor=#00CC00;" parent="1" edge="1">
          <mxGeometry width="50" height="50" relative="1" as="geometry">
            <mxPoint x="1080" y="408" as="sourcePoint" />
            <mxPoint x="1040" y="408" as="targetPoint" />
          </mxGeometry>
        </mxCell>
        <mxCell id="v1X2Iz-Z-YhmHoCjYg2L-91" value="" style="endArrow=none;html=1;rounded=0;endFill=0;strokeWidth=3;strokeColor=#00CC00;" parent="1" edge="1">
          <mxGeometry width="50" height="50" relative="1" as="geometry">
            <mxPoint x="1080" y="440" as="sourcePoint" />
            <mxPoint x="1080" y="407" as="targetPoint" />
          </mxGeometry>
        </mxCell>
        <mxCell id="v1X2Iz-Z-YhmHoCjYg2L-94" value="&lt;font style=&quot;font-size: 18px; color: rgb(0, 0, 255);&quot;&gt;&lt;b style=&quot;&quot;&gt;$$\phi_\text{ref}(t)$$&lt;/b&gt;&lt;/font&gt;" style="text;html=1;align=center;verticalAlign=middle;whiteSpace=wrap;rounded=0;" parent="1" vertex="1">
          <mxGeometry x="20" y="429" width="45" height="30" as="geometry" />
        </mxCell>
        <mxCell id="v1X2Iz-Z-YhmHoCjYg2L-95" value="&lt;font style=&quot;font-size: 16px; color: rgb(153, 51, 255);&quot;&gt;&lt;b style=&quot;&quot;&gt;CP current&lt;br&gt;&lt;/b&gt;&lt;/font&gt;&lt;div&gt;&lt;font style=&quot;font-size: 16px; color: rgb(153, 51, 255);&quot;&gt;&lt;b style=&quot;background-color: transparent;&quot;&gt;averaging&lt;/b&gt;&lt;b style=&quot;&quot;&gt;&amp;nbsp;&lt;/b&gt;&lt;/font&gt;&lt;/div&gt;" style="text;html=1;align=center;verticalAlign=middle;whiteSpace=wrap;rounded=0;" parent="1" vertex="1">
          <mxGeometry x="710" y="360" width="100" height="30" as="geometry" />
        </mxCell>
        <mxCell id="v1X2Iz-Z-YhmHoCjYg2L-96" value="" style="shape=flexArrow;endArrow=classic;html=1;rounded=0;strokeColor=#C3ABD0;strokeWidth=3;" parent="1" edge="1">
          <mxGeometry width="50" height="50" relative="1" as="geometry">
            <mxPoint x="730" y="419.52" as="sourcePoint" />
            <mxPoint x="800" y="419.52" as="targetPoint" />
          </mxGeometry>
        </mxCell>
        <mxCell id="v1X2Iz-Z-YhmHoCjYg2L-97" value="&lt;font style=&quot;font-size: 16px; color: rgb(103, 171, 159);&quot;&gt;&lt;b style=&quot;&quot;&gt;$$\times\frac{I_\text{cp}}{2\pi}$$&lt;/b&gt;&lt;/font&gt;" style="text;html=1;align=center;verticalAlign=middle;whiteSpace=wrap;rounded=0;" parent="1" vertex="1">
          <mxGeometry x="814" y="379" width="45" height="30" as="geometry" />
        </mxCell>
        <mxCell id="v1X2Iz-Z-YhmHoCjYg2L-99" value="&lt;font style=&quot;font-size: 18px; color: rgb(0, 204, 0);&quot;&gt;&lt;b style=&quot;&quot;&gt;$$I_\text{cpout}(t)$$&lt;/b&gt;&lt;/font&gt;" style="text;html=1;align=center;verticalAlign=middle;whiteSpace=wrap;rounded=0;" parent="1" vertex="1">
          <mxGeometry x="845" y="310" width="45" height="30" as="geometry" />
        </mxCell>
        <mxCell id="v1X2Iz-Z-YhmHoCjYg2L-100" value="&lt;font style=&quot;font-size: 16px; color: rgb(0, 204, 0);&quot;&gt;&lt;b style=&quot;&quot;&gt;ZOH&lt;/b&gt;&lt;/font&gt;" style="text;html=1;align=center;verticalAlign=middle;whiteSpace=wrap;rounded=0;strokeWidth=3;" parent="1" vertex="1">
          <mxGeometry x="877" y="388" width="45" height="30" as="geometry" />
        </mxCell>
        <mxCell id="v1X2Iz-Z-YhmHoCjYg2L-101" value="" style="endArrow=none;dashed=1;html=1;strokeWidth=2;rounded=0;strokeColor=#B9E0A5;opacity=60;" parent="1" edge="1">
          <mxGeometry width="50" height="50" relative="1" as="geometry">
            <mxPoint x="830.02" y="619" as="sourcePoint" />
            <mxPoint x="1170.02" y="619" as="targetPoint" />
          </mxGeometry>
        </mxCell>
        <mxCell id="v1X2Iz-Z-YhmHoCjYg2L-102" value="" style="endArrow=blockThin;html=1;rounded=0;endFill=1;strokeWidth=2;" parent="1" edge="1">
          <mxGeometry width="50" height="50" relative="1" as="geometry">
            <mxPoint x="820" y="680" as="sourcePoint" />
            <mxPoint x="1200" y="680" as="targetPoint" />
          </mxGeometry>
        </mxCell>
        <mxCell id="v1X2Iz-Z-YhmHoCjYg2L-103" value="" style="endArrow=blockThin;html=1;rounded=0;endFill=1;strokeWidth=2;" parent="1" edge="1">
          <mxGeometry width="50" height="50" relative="1" as="geometry">
            <mxPoint x="1000.02" y="679" as="sourcePoint" />
            <mxPoint x="1000.02" y="589" as="targetPoint" />
          </mxGeometry>
        </mxCell>
        <mxCell id="v1X2Iz-Z-YhmHoCjYg2L-104" value="" style="endArrow=none;html=1;rounded=0;strokeWidth=2;strokeColor=#00CC00;" parent="1" edge="1">
          <mxGeometry width="50" height="50" relative="1" as="geometry">
            <mxPoint x="960.02" y="679" as="sourcePoint" />
            <mxPoint x="1000.02" y="619" as="targetPoint" />
          </mxGeometry>
        </mxCell>
        <mxCell id="v1X2Iz-Z-YhmHoCjYg2L-105" value="" style="endArrow=none;html=1;rounded=0;strokeWidth=2;strokeColor=#00CC00;" parent="1" edge="1">
          <mxGeometry width="50" height="50" relative="1" as="geometry">
            <mxPoint x="1040.02" y="679" as="sourcePoint" />
            <mxPoint x="1000.02" y="619" as="targetPoint" />
          </mxGeometry>
        </mxCell>
        <mxCell id="v1X2Iz-Z-YhmHoCjYg2L-107" value="&lt;font style=&quot;font-size: 14px; color: rgb(0, 204, 0);&quot;&gt;&lt;b style=&quot;&quot;&gt;$$\frac{\Phi_0}{T_\text{ref}}\cdot \frac{I_\text{cp}}{2\pi}\cdot T_\text{ref}=\Phi_0\cdot \frac{I_\text{cp}}{2\pi}$$&lt;/b&gt;&lt;/font&gt;" style="text;html=1;align=center;verticalAlign=middle;whiteSpace=wrap;rounded=0;" parent="1" vertex="1">
          <mxGeometry x="1030" y="579" width="160" height="30" as="geometry" />
        </mxCell>
        <mxCell id="v1X2Iz-Z-YhmHoCjYg2L-108" value="" style="endArrow=none;html=1;rounded=0;strokeWidth=3;strokeColor=#00CC00;" parent="1" edge="1">
          <mxGeometry width="50" height="50" relative="1" as="geometry">
            <mxPoint x="1080.02" y="679" as="sourcePoint" />
            <mxPoint x="1120" y="660" as="targetPoint" />
          </mxGeometry>
        </mxCell>
        <mxCell id="v1X2Iz-Z-YhmHoCjYg2L-109" value="" style="endArrow=none;html=1;rounded=0;strokeWidth=3;strokeColor=#00CC00;" parent="1" edge="1">
          <mxGeometry width="50" height="50" relative="1" as="geometry">
            <mxPoint x="1160.02" y="679" as="sourcePoint" />
            <mxPoint x="1120" y="660" as="targetPoint" />
          </mxGeometry>
        </mxCell>
        <mxCell id="v1X2Iz-Z-YhmHoCjYg2L-110" value="" style="endArrow=none;html=1;rounded=0;strokeWidth=3;strokeColor=#00CC00;" parent="1" edge="1">
          <mxGeometry width="50" height="50" relative="1" as="geometry">
            <mxPoint x="840.02" y="679" as="sourcePoint" />
            <mxPoint x="880" y="660" as="targetPoint" />
          </mxGeometry>
        </mxCell>
        <mxCell id="v1X2Iz-Z-YhmHoCjYg2L-111" value="" style="endArrow=none;html=1;rounded=0;strokeWidth=3;strokeColor=#00CC00;" parent="1" edge="1">
          <mxGeometry width="50" height="50" relative="1" as="geometry">
            <mxPoint x="919.51" y="679" as="sourcePoint" />
            <mxPoint x="879.49" y="660" as="targetPoint" />
          </mxGeometry>
        </mxCell>
        <mxCell id="v1X2Iz-Z-YhmHoCjYg2L-112" value="&lt;font style=&quot;font-size: 18px; color: rgb(0, 204, 0);&quot;&gt;&lt;b style=&quot;&quot;&gt;$$I_\text{cpout}(f)$$&lt;/b&gt;&lt;/font&gt;" style="text;html=1;align=center;verticalAlign=middle;whiteSpace=wrap;rounded=0;" parent="1" vertex="1">
          <mxGeometry x="830" y="574" width="60" height="30" as="geometry" />
        </mxCell>
        <mxCell id="v1X2Iz-Z-YhmHoCjYg2L-114" value="" style="endArrow=none;html=1;rounded=0;strokeColor=#FF00FF;dashed=1;strokeWidth=2;" parent="1" edge="1">
          <mxGeometry width="50" height="50" relative="1" as="geometry">
            <mxPoint x="1000" y="619" as="sourcePoint" />
            <mxPoint x="1170" y="679" as="targetPoint" />
          </mxGeometry>
        </mxCell>
        <mxCell id="v1X2Iz-Z-YhmHoCjYg2L-116" value="" style="endArrow=none;html=1;rounded=0;strokeColor=#FF00FF;dashed=1;strokeWidth=2;" parent="1" edge="1">
          <mxGeometry width="50" height="50" relative="1" as="geometry">
            <mxPoint x="1000" y="619" as="sourcePoint" />
            <mxPoint x="830" y="679" as="targetPoint" />
          </mxGeometry>
        </mxCell>
        <mxCell id="v1X2Iz-Z-YhmHoCjYg2L-117" value="&lt;font style=&quot;color: rgb(255, 0, 255); font-size: 15px;&quot;&gt;&lt;b style=&quot;&quot;&gt;$$\text{sinc}$$&lt;/b&gt;&lt;/font&gt;" style="text;html=1;align=center;verticalAlign=middle;whiteSpace=wrap;rounded=0;" parent="1" vertex="1">
          <mxGeometry x="1050" y="620" width="60" height="30" as="geometry" />
        </mxCell>
        <mxCell id="O5x6K-PuyJ6r4iNwGTU9-1" value="&lt;font style=&quot;font-size: 16px;&quot;&gt;&lt;b&gt;&lt;i&gt;$$t$$&lt;/i&gt;&lt;/b&gt;&lt;/font&gt;" style="text;html=1;align=center;verticalAlign=middle;whiteSpace=wrap;rounded=0;" parent="1" vertex="1">
          <mxGeometry x="660" y="440" width="60" height="30" as="geometry" />
        </mxCell>
        <mxCell id="O5x6K-PuyJ6r4iNwGTU9-2" value="&lt;font style=&quot;font-size: 16px;&quot;&gt;&lt;b&gt;&lt;i&gt;$$t$$&lt;/i&gt;&lt;/b&gt;&lt;/font&gt;" style="text;html=1;align=center;verticalAlign=middle;whiteSpace=wrap;rounded=0;" parent="1" vertex="1">
          <mxGeometry x="1060" y="440" width="60" height="30" as="geometry" />
        </mxCell>
        <mxCell id="O5x6K-PuyJ6r4iNwGTU9-3" value="&lt;font style=&quot;font-size: 16px;&quot;&gt;&lt;b&gt;&lt;i&gt;$$f$$&lt;/i&gt;&lt;/b&gt;&lt;/font&gt;" style="text;html=1;align=center;verticalAlign=middle;whiteSpace=wrap;rounded=0;" parent="1" vertex="1">
          <mxGeometry x="1160" y="679" width="60" height="30" as="geometry" />
        </mxCell>
        <mxCell id="JK-ndHyI9qrgXiUIDrbA-1" value="" style="endArrow=baseDash;html=1;rounded=0;endFill=0;strokeWidth=3;strokeColor=#67AB9F;endSize=12;dashed=1;" parent="1" edge="1">
          <mxGeometry width="50" height="50" relative="1" as="geometry">
            <mxPoint x="865" y="440" as="sourcePoint" />
            <mxPoint x="865" y="360" as="targetPoint" />
          </mxGeometry>
        </mxCell>
        <mxCell id="JK-ndHyI9qrgXiUIDrbA-2" value="&lt;font style=&quot;font-size: 16px;&quot;&gt;$$0$$&lt;/font&gt;" style="text;html=1;align=center;verticalAlign=middle;whiteSpace=wrap;rounded=0;" parent="1" vertex="1">
          <mxGeometry x="130" y="679" width="60" height="30" as="geometry" />
        </mxCell>
        <mxCell id="JK-ndHyI9qrgXiUIDrbA-3" value="&lt;font style=&quot;font-size: 16px;&quot;&gt;$$0$$&lt;/font&gt;" style="text;html=1;align=center;verticalAlign=middle;whiteSpace=wrap;rounded=0;" parent="1" vertex="1">
          <mxGeometry x="530" y="679" width="60" height="30" as="geometry" />
        </mxCell>
        <mxCell id="NGAxpCUIEvzDBOvkwJpl-6" value="$$0$$" style="text;html=1;align=center;verticalAlign=middle;whiteSpace=wrap;rounded=0;" vertex="1" parent="1">
          <mxGeometry x="450" y="440" width="60" height="30" as="geometry" />
        </mxCell>
        <mxCell id="NGAxpCUIEvzDBOvkwJpl-7" value="$$T_\text{ref}$$" style="text;html=1;align=center;verticalAlign=middle;whiteSpace=wrap;rounded=0;" vertex="1" parent="1">
          <mxGeometry x="490" y="440" width="60" height="30" as="geometry" />
        </mxCell>
        <mxCell id="NGAxpCUIEvzDBOvkwJpl-8" value="$$2T_\text{ref}$$" style="text;html=1;align=center;verticalAlign=middle;whiteSpace=wrap;rounded=0;" vertex="1" parent="1">
          <mxGeometry x="530" y="440" width="60" height="30" as="geometry" />
        </mxCell>
        <mxCell id="NGAxpCUIEvzDBOvkwJpl-9" value="$$3T_\text{ref}$$" style="text;html=1;align=center;verticalAlign=middle;whiteSpace=wrap;rounded=0;" vertex="1" parent="1">
          <mxGeometry x="570" y="440" width="60" height="30" as="geometry" />
        </mxCell>
        <mxCell id="NGAxpCUIEvzDBOvkwJpl-10" value="$$4T_\text{ref}$$" style="text;html=1;align=center;verticalAlign=middle;whiteSpace=wrap;rounded=0;" vertex="1" parent="1">
          <mxGeometry x="610" y="440" width="60" height="30" as="geometry" />
        </mxCell>
        <mxCell id="NGAxpCUIEvzDBOvkwJpl-11" value="$$0$$" style="text;html=1;align=center;verticalAlign=middle;whiteSpace=wrap;rounded=0;" vertex="1" parent="1">
          <mxGeometry x="850" y="440" width="60" height="30" as="geometry" />
        </mxCell>
        <mxCell id="NGAxpCUIEvzDBOvkwJpl-12" value="$$T_\text{ref}$$" style="text;html=1;align=center;verticalAlign=middle;whiteSpace=wrap;rounded=0;" vertex="1" parent="1">
          <mxGeometry x="890" y="440" width="60" height="30" as="geometry" />
        </mxCell>
        <mxCell id="NGAxpCUIEvzDBOvkwJpl-13" value="$$2T_\text{ref}$$" style="text;html=1;align=center;verticalAlign=middle;whiteSpace=wrap;rounded=0;" vertex="1" parent="1">
          <mxGeometry x="930" y="440" width="60" height="30" as="geometry" />
        </mxCell>
        <mxCell id="NGAxpCUIEvzDBOvkwJpl-14" value="$$3T_\text{ref}$$" style="text;html=1;align=center;verticalAlign=middle;whiteSpace=wrap;rounded=0;" vertex="1" parent="1">
          <mxGeometry x="970" y="440" width="60" height="30" as="geometry" />
        </mxCell>
        <mxCell id="NGAxpCUIEvzDBOvkwJpl-15" value="$$4T_\text{ref}$$" style="text;html=1;align=center;verticalAlign=middle;whiteSpace=wrap;rounded=0;" vertex="1" parent="1">
          <mxGeometry x="1010" y="440" width="60" height="30" as="geometry" />
        </mxCell>
        <mxCell id="NGAxpCUIEvzDBOvkwJpl-16" value="$$-f_\text{ref}$$" style="text;html=1;align=center;verticalAlign=middle;whiteSpace=wrap;rounded=0;" vertex="1" parent="1">
          <mxGeometry x="410" y="679" width="60" height="30" as="geometry" />
        </mxCell>
        <mxCell id="NGAxpCUIEvzDBOvkwJpl-17" value="$$f_\text{ref}$$" style="text;html=1;align=center;verticalAlign=middle;whiteSpace=wrap;rounded=0;" vertex="1" parent="1">
          <mxGeometry x="650" y="679" width="60" height="30" as="geometry" />
        </mxCell>
        <mxCell id="NGAxpCUIEvzDBOvkwJpl-18" value="&lt;font style=&quot;font-size: 16px;&quot;&gt;$$0$$&lt;/font&gt;" style="text;html=1;align=center;verticalAlign=middle;whiteSpace=wrap;rounded=0;" vertex="1" parent="1">
          <mxGeometry x="970" y="679" width="60" height="30" as="geometry" />
        </mxCell>
        <mxCell id="NGAxpCUIEvzDBOvkwJpl-19" value="$$-f_\text{ref}$$" style="text;html=1;align=center;verticalAlign=middle;whiteSpace=wrap;rounded=0;" vertex="1" parent="1">
          <mxGeometry x="850" y="679" width="60" height="30" as="geometry" />
        </mxCell>
        <mxCell id="NGAxpCUIEvzDBOvkwJpl-20" value="$$f_\text{ref}$$" style="text;html=1;align=center;verticalAlign=middle;whiteSpace=wrap;rounded=0;" vertex="1" parent="1">
          <mxGeometry x="1090" y="679" width="60" height="30" as="geometry" />
        </mxCell>
      </root>
    </mxGraphModel>
  </diagram>
</mxfile>
